<svg xmlns="http://www.w3.org/2000/svg" version="1.1" xmlns:xlink="http://www.w3.org/1999/xlink" xmlns:svgjs="http://svgjs.dev/svgjs" width="1000" height="623" viewBox="0 0 1000 623"><g transform="matrix(1,0,0,1,-0.6060606060606233,0.2522267206477409)"><svg viewBox="0 0 396 247" data-background-color="#ffffff" preserveAspectRatio="xMidYMid meet" height="623" width="1000" xmlns="http://www.w3.org/2000/svg" xmlns:xlink="http://www.w3.org/1999/xlink"><g id="tight-bounds" transform="matrix(1,0,0,1,0.2400000000000091,-0.09999999999999432)"><svg viewBox="0 0 395.52 247.2" height="247.2" width="395.52"><g><svg></svg></g><g><svg viewBox="0 0 395.52 247.2" height="247.2" width="395.52"><g transform="matrix(1,0,0,1,151.20970637119115,47.215199999999996)"><svg viewBox="0 0 93.10058725761772 152.7696" height="152.7696" width="93.10058725761772"><g><svg viewBox="0 0 93.10058725761772 152.7696" height="152.7696" width="93.10058725761772"><g><svg viewBox="0 0 93.10058725761772 152.7696" height="152.7696" width="93.10058725761772"><g><svg viewBox="0 0 93.10058725761772 152.7696" height="152.7696" width="93.10058725761772"><g><svg viewBox="0 0 93.10058725761772 152.7696" height="152.7696" width="93.10058725761772"><g><svg viewBox="0 0 93.10058725761772 152.7696" height="152.7696" width="93.10058725761772"><g transform="matrix(1,0,0,1,0,0)"><svg width="93.10058725761772" viewBox="0.800000011920929 -35.5 22 36.099998474121094" height="152.7696" data-palette-color="#a437db"><path d="M21.6-9.8L21.6-9.8Q21.6-5 17.95-2.2 14.3 0.6 9.1 0.6L9.1 0.6Q5.6 0.6 3.33-1.18 1.05-2.95 0.8-4.2L0.8-4.2Q1.35-5.85 3.15-7.9 4.95-9.95 6.4-10.4L6.4-10.4Q8.95-8.75 11.15-3.05L11.15-3.05Q14.4-3.15 14.4-6.6L14.4-6.6Q14.4-8.5 12.88-11.28 11.35-14.05 9.55-16.48 7.75-18.9 6.23-21.93 4.7-24.95 4.7-27.3L4.7-27.3Q4.7-31.1 7.78-33.3 10.85-35.5 14.7-35.5 18.55-35.5 20.68-33.85 22.8-32.2 22.8-30.1 22.8-28 21.2-25.8 19.6-23.6 18-22.3L18-22.3 16.4-21Q17-20.2 17.85-18.95 18.7-17.7 20.15-14.7 21.6-11.7 21.6-9.8ZM17.78-26.2Q18.45-26.85 19-27.78 19.55-28.7 19.55-29.73 19.55-30.75 18.35-31.45 17.15-32.15 15.48-32.15 13.8-32.15 12.68-31.38 11.55-30.6 11.55-29.53 11.55-28.45 12.28-27.03 13-25.6 13.7-24.65L13.7-24.65 14.45-23.7Q14.95-23.95 16.03-24.75 17.1-25.55 17.78-26.2Z" opacity="1" transform="matrix(1,0,0,1,0,0)" fill="#a437db" class="undefined-text-0" data-fill-palette-color="primary" id="text-0"></path></svg></g></svg></g></svg></g></svg></g></svg></g></svg></g></svg></g><g><path d="M170.15 0c30.402 0 58.24 10.976 79.768 29.183l-11.147 0c-19.26-14.022-42.974-22.294-68.621-22.295-25.647 0-49.361 8.272-68.621 22.295l-11.147 0c21.528-18.206 49.366-29.183 79.768-29.183zM170.15 247.2c-30.402 0-58.24-10.976-79.768-29.183h11.147c19.26 14.022 42.974 22.294 68.621 22.295 25.647 0 49.361-8.272 68.621-22.295h11.148c-21.528 18.206-49.366 29.183-79.769 29.183z" fill="#a437db" stroke="transparent" data-fill-palette-color="tertiary"></path></g></svg></g><defs></defs></svg><rect width="395.52" height="247.2" fill="none" stroke="none" visibility="hidden"></rect></g></svg></g></svg>